<?xml version="1.0" encoding="UTF-8"?>
<!DOCTYPE svg PUBLIC "-//W3C//DTD SVG 1.1//EN" "http://www.w3.org/Graphics/SVG/1.1/DTD/svg11.dtd">
<!-- Creator: CorelDRAW 2020 (64-Bit) -->
<svg xmlns="http://www.w3.org/2000/svg" xml:space="preserve" width="3.2815in" height="0.799327in" version="1.1" style="shape-rendering:geometricPrecision; text-rendering:geometricPrecision; image-rendering:optimizeQuality; fill-rule:evenodd; clip-rule:evenodd"
viewBox="0 0 1715.78 417.94"
 xmlns:xlink="http://www.w3.org/1999/xlink"
 xmlns:xodm="http://www.corel.com/coreldraw/odm/2003">
 <defs>
  <style type="text/css">
   <![CDATA[
    .fil1 {fill:#73E207}
    .fil0 {fill:#F5FAF5}
   ]]>
  </style>
 </defs>
 <g id="Layer_x0020_1">
  <metadata id="CorelCorpID_0Corel-Layer"/>
  <g id="_2513488813040">
   <g>
    <path class="fil0" d="M662.86 80.65l-1.4 0c-102.5,0.1 -154.07,115.45 -107.73,198.4 22.35,40 65.75,59.93 110.78,57.39 24.02,-1.36 123,-30.25 84.64,-66.62 -23.03,-21.84 -66.11,45.58 -124.1,7.1 -36.27,-24.07 -41.91,-85.36 -18.41,-119.84 13.38,-19.64 31.24,-28.6 54.87,-29.61 35.2,-1.51 39.01,5.87 67.17,18.2 20.65,9.05 22.79,-38.42 2.73,-49.72 -18.11,-10.2 -47.93,-15.32 -68.53,-15.3z"/>
    <path class="fil0" d="M1175.97 215.34c-2.38,6.23 -47.5,3.95 -55.45,3.96 -4.84,0 -25.43,1.29 -26.13,-3.56 -0.75,-5.18 6.74,-15.62 10.57,-18.92 33.27,-28.72 79.65,-4.08 71.01,18.53zm-49.02 -66.35c-76,4.63 -117.07,98.45 -66.5,154.64 24.1,26.78 63.47,36.48 98.15,30.94 19.23,-3.07 92.53,-24.48 54.43,-51.55 -16.71,-11.88 -53.86,31.32 -100.08,3.24 -9.93,-6.03 -32.72,-28.77 -7.91,-31.25 17.98,-1.8 46.99,-0.78 65.65,-0.28 15.53,0.42 46.55,7.59 53.18,-10.29 5.9,-15.93 2.59,-40.32 -6.2,-54.87 -21.98,-36.4 -50.77,-43 -90.72,-40.57z"/>
    <path class="fil0" d="M1668.64 215.34c-1.62,8.17 -48.47,3.96 -56.45,3.96 -19.01,-0 -42.5,-0.1 -16.47,-22.41 13.16,-11.27 26.46,-16.61 43.89,-11.95 13.09,3.5 32.34,13.64 29.02,30.4zm-53.97 -65.86c-33.55,2.65 -62.7,22.99 -76.87,53.36 -14.37,30.79 -10.14,76.94 14.12,101.98 24.4,25.17 63.85,36.04 97.95,29.76 19.05,-3.51 30.25,-9.28 46.98,-18.03 17.61,-9.22 21.51,-28.82 3.25,-36.35 -11.71,-4.83 -60.93,33.86 -99.37,4.29 -12.29,-9.45 -29.76,-28.94 -1.08,-29.14 21.45,-0.15 43.66,-0.13 65.1,0.43 17.33,0.45 44.69,6.94 49.61,-14.74 3.64,-16.04 -0.02,-39.13 -7.85,-53.61 -18.68,-34.57 -56.33,-40.74 -91.84,-37.94z"/>
    <path class="fil0" d="M815.01 214.84c0.19,-13.02 20.39,-25.03 30.61,-29.3 13.37,-5.59 36.46,-2.37 45.9,9.73 21.4,27.43 -0.76,24.03 -20.57,24.02 -6.75,-0 -56.06,2.81 -55.95,-4.45zm35.16 -65.85c-75.62,3.65 -117.76,94.42 -69.93,153.61 52.63,65.12 200.35,17.72 154.17,-19.65 -14.85,-12.02 -54.56,30.77 -100.03,3.96 -10.16,-5.99 -33.26,-29.15 -8.47,-32.21 14.76,-1.82 47.16,-0.83 63.17,-0.56 13.9,0.23 46.95,6.18 54.07,-7.48 6.88,-13.19 2.82,-42.94 -3.77,-56.13 -18.31,-36.68 -51.79,-43.35 -89.21,-41.54z"/>
    <path class="fil0" d="M1305.61 148.65c-20.02,0.62 -41.12,7.22 -55.09,22.4 -13.33,14.49 -20.45,40.16 -9.65,58.11 21.88,36.36 95.19,28.91 112.42,43.86 9.57,8.3 1.28,18.15 -7.96,21.78 -10.68,4.2 -23.55,4.28 -34.84,3.33 -13.3,-1.12 -59.02,-15.63 -61.5,-15.22 -8.1,1.32 -13.76,14.98 -15.26,22.02 -2.14,10.06 11.82,14.17 20.01,16.83 19.74,6.41 43.04,13.82 63.88,14.36 41.31,1.08 93.06,-14.89 88.84,-66.01 -3.61,-43.81 -66.88,-49.73 -100.81,-55.23 -31.59,-5.12 -21.74,-27.49 5.03,-31.15 22.65,-3.09 45.64,4.13 66.92,10.88 23.75,7.54 26.27,-32.43 -0.5,-39.3 -27.43,-7.05 -43.18,-7.53 -71.49,-6.66z"/>
    <path class="fil0" d="M1458.2 92.32c-7.13,0.4 -29.42,4.43 -31.9,11.89 -2.26,6.79 -1.27,34.48 -1.27,43.29 0,29.54 0,59.09 0,88.63 0,12.69 -1.23,80.07 1.74,86.89 3.99,9.15 28.66,5.52 37.38,5.22 17.07,-0.59 12.37,-18.5 12.37,-32.19 0,-29.54 -0.12,-59.12 -0.01,-88.66 0.08,-21.09 7.67,-13.5 27.32,-14.75 9.68,-0.62 34.39,4.87 36.37,-6.29 1.07,-6.03 -0.59,-31.6 -10.42,-33.18 -12.38,-1.99 -30.15,-0.7 -42.89,-0.64 -15.2,0.06 -10.35,-22.19 -10.37,-34.24 -0.04,-21.21 4.88,-27.28 -18.32,-25.97z"/>
    <path class="fil0" d="M968.53 99.5l0.44 157.45c-0.03,15.86 -5.76,65.56 10.69,70.02 5.77,1.56 31.38,2.94 35.48,-1.1 5.81,-5.72 3.41,-29.72 3.4,-39.19l0.56 -0c-0.05,-13.22 0.38,-67.43 -0.59,-76.28 -0.66,-6 0.81,-96.03 1.05,-108.46 0.41,-21.29 1.54,-30.34 -22.72,-26.11 -17.52,3.05 -28.35,2.93 -28.32,23.67z"/>
   </g>
   <g>
    <polygon class="fil1" points="138.31,4.65 -0,137.12 2.4,411.95 139.36,275.73 "/>
    <polygon class="fil1" points="417.49,0 145.66,1.65 280.83,138.31 416.29,139.21 "/>
    <polygon class="fil1" points="141.61,278.73 413.44,280.37 278.27,417.04 142.81,417.94 "/>
   </g>
  </g>
 </g>
</svg>
